# xmcd
#
# Track frame offsets:
#	150
#	10876
#	21085
#	34444
#	46513
#	57651
#	70233
#	83844
#	94435
#	106296
#	117754
#	130448
#	141368
#	153028
#	163983
#	174675
#	185077
#	195395
#	207293
#	218572
#	231090
#	242311
#	252963
#	264778
#	277268
#	289132
#	301000
#	314452
#	326598
#	335854
#	346181
#	359533
#	369315
#
# Disc length: 5067 seconds
# Revision: 1
# Processed by: cddbd v1.5.2PL0 Copyright (c) Steve Scherf et al.
# Submitted via: dBpowerAMP V12.0
#
DISCID=f413c921
DTITLE=Various Artist - Groovin' The Blues
DYEAR=2016
DGENRE=Electric Blues
TTITLE0=Sonny Terry - Lost Jawbone
TTITLE1=Cousin Leroy - Goin' Back Home
TTITLE2=Champion Jack Dupree - The Ups
TTITLE3=Buddy Lucas - No Dice
TTITLE4=Sue Allen and Oscar Black - Hold Me Baby
TTITLE5=Sonny Terry - Louise
TTITLE6=Clayton Love - Love Blues
TTITLE7=Maymie Watts - There Goes That Train
TTITLE8=Big Tiny Kennedy - 'Taint Right
TTITLE9=Little Tommy Brown - Don't Leave Me
TTITLE10=Cousin Leroy - 41 Highway
TTITLE11=Sonny Terry - Tell Me Baby
TTITLE12=Buddy Lucas - I Got Drunk
TTITLE13=Zilla Mays - Romance In The Dark
TTITLE14=Big Tiny Kennedy - I Need A Good Woman
TTITLE15=Oscar Black - What Makes Me Love You So
TTITLE16=Sonny Terry - Hootin' Blues No. 2
TTITLE17=The Du Droppers - You've Been Good To Everybody
TTITLE18=Cousin Leroy - Catfish
TTITLE19=Bertice Reading - Beantown Boogie
TTITLE20=Cousin Leroy - Lonesome Bedroom
TTITLE21=Champion Jack Dupree - Lonely Road Blues
TTITLE22=Sonny Terry - Throw This Old Dog A Bone
TTITLE23=Buddy Lucas - I Need Help
TTITLE24=Sonny Terry - I Took You In Baby
TTITLE25=Little Tommy Brown - Won't You Forgive Me Baby
TTITLE26=Champion Jack Dupree - Story Of My Life
TTITLE27=Bertice Reading - I Wash My Hands
TTITLE28=Oscar Black and Sus Allen - I'll Live My Life Alone
TTITLE29=Sonny Terry - Juice Head Woman
TTITLE30=Sonny Brooks - Sentimental Blues
TTITLE31=Oscar Black - Into Each Heart (Some Tears Must Fall)
TTITLE32=Big Connie - Wait Till The Next Year, Baby
EXTD=
EXTT0=
EXTT1=
EXTT2=
EXTT3=
EXTT4=
EXTT5=
EXTT6=
EXTT7=
EXTT8=
EXTT9=
EXTT10=
EXTT11=
EXTT12=
EXTT13=
EXTT14=
EXTT15=
EXTT16=
EXTT17=
EXTT18=
EXTT19=
EXTT20=
EXTT21=
EXTT22=
EXTT23=
EXTT24=
EXTT25=
EXTT26=
EXTT27=
EXTT28=
EXTT29=
EXTT30=
EXTT31=
EXTT32=
PLAYORDER=
